<?xml version="1.0" standalone="no"?>
<!DOCTYPE svg PUBLIC "-//W3C//DTD SVG 20010904//EN"
 "http://www.w3.org/TR/2001/REC-SVG-20010904/DTD/svg10.dtd">
<svg version="1.0" xmlns="http://www.w3.org/2000/svg"
 width="256.000000pt" height="256.000000pt" viewBox="0 0 256.000000 256.000000"
 preserveAspectRatio="xMidYMid meet">

<g transform="translate(0.000000,256.000000) scale(0.100000,-0.100000)"
fill="#000000" stroke="none">
<path d="M667 2310 c-114 -20 -227 -104 -273 -204 -38 -83 -43 -168 -44 -666
0 -489 7 -602 39 -675 30 -68 111 -148 184 -181 l62 -29 650 0 650 0 55 26
c115 55 188 152 210 279 7 44 10 241 8 615 -3 548 -3 550 -26 607 -46 113
-160 204 -286 227 -70 13 -1154 13 -1229 1z m238 -125 c30 -29 31 -35 5 -68
-16 -20 -20 -40 -20 -103 0 -58 -4 -82 -17 -96 -9 -10 -20 -18 -25 -18 -4 0
-8 44 -8 99 0 75 -4 101 -15 111 -23 19 -19 66 7 84 31 22 45 20 73 -9z m1054
-6 c50 -17 61 -51 61 -184 0 -171 -20 -195 -158 -195 -62 0 -68 -2 -113 -40
-25 -21 -49 -36 -53 -33 -3 4 -6 21 -6 39 0 28 -5 34 -35 44 -19 6 -39 20 -45
29 -5 10 -10 80 -11 155 -2 130 -1 138 21 161 24 26 14 24 251 33 31 1 70 -3
88 -9z m-1009 -301 c0 -6 7 -19 16 -29 13 -14 26 -17 65 -12 40 5 63 0 122
-23 56 -23 87 -29 142 -28 80 0 120 17 177 72 34 32 40 34 63 24 14 -6 25 -19
25 -27 0 -25 30 -65 61 -81 20 -10 29 -22 29 -39 0 -34 27 -58 62 -53 28 5 29
3 26 -31 -3 -40 -33 -56 -45 -24 -3 10 -15 28 -26 41 -19 21 -28 22 -164 22
-130 0 -145 -2 -163 -20 -11 -11 -20 -24 -20 -30 0 -5 -23 -10 -51 -10 -44 0
-54 4 -76 30 l-25 30 -140 0 c-76 0 -147 -4 -157 -10 -10 -5 -24 -23 -31 -40
-17 -42 -44 -36 -48 10 -9 93 32 183 104 226 37 23 54 23 54 2z m-200 -343 c0
-117 -2 -137 -17 -142 -11 -4 -26 4 -45 25 -26 30 -28 38 -28 113 0 76 2 82
29 110 55 55 61 45 61 -106z m1100 97 c16 -20 20 -40 20 -109 0 -76 -2 -86
-25 -108 -49 -50 -55 -39 -55 114 0 135 1 139 20 134 11 -3 29 -17 40 -31z
m-685 -5 c10 -14 15 -46 15 -89 0 -102 -9 -108 -159 -108 -113 0 -121 1 -135
22 -21 29 -22 170 -3 186 13 11 199 21 245 13 12 -2 29 -13 37 -24z m485 4 c5
-11 10 -51 10 -90 0 -105 -9 -111 -155 -111 -147 0 -155 6 -155 114 0 105 1
106 160 106 118 0 130 -2 140 -19z m-362 -37 c20 -6 22 -13 22 -66 0 -32 7
-72 15 -87 22 -44 58 -53 194 -49 114 3 122 4 147 29 20 21 27 39 31 88 5 52
9 61 25 61 19 0 20 -6 16 -132 -4 -145 -11 -170 -69 -227 -65 -66 -66 -66
-381 -69 -193 -2 -301 1 -330 8 -30 8 -58 27 -94 64 -62 64 -74 104 -74 250 0
99 1 106 20 106 17 0 20 -7 20 -44 0 -114 31 -136 195 -136 167 0 195 21 195
146 0 52 2 55 40 63 3 0 15 -2 28 -5z m-134 -544 c47 -19 86 -38 86 -41 0 -9
-119 -119 -128 -119 -4 0 -26 40 -49 90 -37 81 -40 91 -25 100 10 5 20 8 23 7
4 -1 45 -18 93 -37z m337 30 c18 -10 17 -15 -26 -101 l-46 -90 -27 20 c-34 24
-107 100 -101 104 4 3 170 75 177 76 2 1 12 -4 23 -9z m-457 -134 c27 -58 54
-107 62 -110 8 -3 29 8 47 24 26 22 37 26 45 18 17 -17 15 -40 -11 -143 l-23
-90 -140 0 -139 0 -3 63 c-3 54 -6 62 -22 62 -18 0 -20 -7 -20 -65 l0 -66 -67
3 -68 3 1 76 c3 163 66 256 214 311 25 9 52 17 61 17 11 1 31 -33 63 -103z
m603 82 c77 -28 154 -104 177 -175 10 -29 18 -87 19 -130 l2 -78 -67 -3 -67
-3 -3 63 c-2 50 -7 63 -20 66 -14 3 -17 -7 -20 -60 l-3 -63 -139 0 -140 0 -23
90 c-25 101 -27 114 -13 135 8 12 13 11 39 -8 52 -38 61 -31 115 83 36 76 55
105 67 105 10 0 44 -10 76 -22z"/>
<path d="M1700 2008 c-18 -51 -35 -99 -38 -105 -7 -22 36 -15 48 7 8 15 21 20
51 20 32 0 42 -4 46 -20 3 -13 14 -20 29 -20 l24 0 -35 96 c-42 116 -41 114
-69 114 -20 0 -28 -12 -56 -92z m75 -10 c6 -24 4 -28 -14 -28 -22 0 -25 10
-15 48 8 27 20 19 29 -20z"/>
<path d="M1890 1995 c0 -98 1 -105 20 -105 19 0 20 7 20 105 0 98 -1 105 -20
105 -19 0 -20 -7 -20 -105z"/>
<path d="M984 1575 c-33 -51 13 -107 71 -85 29 11 42 52 26 86 -15 35 -74 34
-97 -1z"/>
<path d="M1457 1582 c-36 -39 -14 -92 38 -92 26 0 39 6 52 26 15 24 15 29 2
53 -19 33 -67 40 -92 13z"/>
<path d="M1120 1301 c0 -46 130 -86 203 -62 44 15 87 48 87 67 0 21 -25 17
-66 -11 -25 -17 -50 -25 -79 -25 -29 0 -54 8 -79 25 -44 30 -66 32 -66 6z"/>
<path d="M950 417 c-18 -9 -25 -21 -25 -42 0 -26 6 -33 43 -50 27 -12 41 -25
40 -35 -4 -21 -47 -25 -54 -6 -10 25 -36 20 -32 -6 6 -47 99 -49 119 -4 15 32
-3 63 -42 71 -33 8 -48 30 -31 47 9 9 16 7 29 -5 21 -19 47 -8 38 15 -4 9 -16
19 -28 22 -29 8 -28 8 -57 -7z"/>
<path d="M1623 420 c-30 -12 -43 -41 -43 -93 0 -53 30 -87 78 -87 31 0 72 29
72 50 0 6 -9 10 -20 10 -11 0 -20 -4 -20 -9 0 -5 -9 -13 -21 -16 -51 -17 -83
77 -37 109 20 14 24 14 46 0 13 -8 30 -14 39 -12 13 3 13 6 -3 25 -22 26 -60
36 -91 23z"/>
<path d="M1960 423 c-49 -18 -72 -80 -50 -134 19 -44 66 -62 115 -43 22 9 45
56 45 93 0 53 -64 102 -110 84z m55 -43 c33 -36 16 -110 -26 -110 -48 0 -69
85 -27 114 29 20 31 20 53 -4z"/>
<path d="M347 343 c-15 -43 -27 -84 -27 -90 0 -20 28 -15 40 7 7 13 21 20 41
20 22 0 32 -5 36 -20 3 -11 14 -20 25 -20 21 0 22 -6 -16 108 -19 56 -27 67
-47 70 -22 3 -27 -5 -52 -75z m68 -10 c5 -19 2 -23 -14 -23 -21 0 -26 15 -15
45 8 19 19 10 29 -22z"/>
<path d="M510 330 c0 -83 1 -90 20 -90 19 0 20 7 20 90 0 83 -1 90 -20 90 -19
0 -20 -7 -20 -90z"/>
<path d="M660 330 c0 -73 3 -90 15 -90 12 0 15 17 15 90 0 73 -3 90 -15 90
-12 0 -15 -17 -15 -90z"/>
<path d="M740 330 c0 -72 3 -90 15 -90 10 0 15 15 17 58 l3 57 35 -57 c21 -36
42 -58 52 -58 16 0 18 11 18 90 0 72 -3 90 -15 90 -10 0 -15 -15 -17 -57 l-3
-58 -35 58 c-21 35 -42 57 -52 57 -16 0 -18 -11 -18 -90z"/>
<path d="M1070 405 c0 -9 9 -15 25 -15 24 0 25 -2 25 -75 0 -60 3 -75 15 -75
12 0 15 15 15 75 0 73 1 75 25 75 16 0 25 6 25 15 0 12 -14 15 -65 15 -51 0
-65 -3 -65 -15z"/>
<path d="M1230 330 c0 -83 1 -90 20 -90 16 0 20 7 20 35 0 22 5 35 13 35 7 0
21 -16 30 -35 11 -23 24 -35 37 -35 20 0 20 1 4 32 -13 24 -14 36 -5 50 15 23
14 71 -1 86 -7 7 -36 12 -65 12 l-53 0 0 -90z m95 35 c0 -14 -8 -21 -27 -23
-24 -3 -28 0 -28 23 0 23 4 26 28 23 19 -2 27 -9 27 -23z"/>
<path d="M1400 346 c0 -66 3 -77 22 -90 29 -20 67 -20 96 0 19 13 22 24 22 90
0 58 -3 74 -15 74 -11 0 -15 -16 -17 -66 -2 -51 -7 -70 -20 -78 -35 -21 -53 4
-56 78 -2 50 -6 66 -17 66 -12 0 -15 -16 -15 -74z"/>
<path d="M1750 405 c0 -9 9 -15 25 -15 24 0 25 -2 25 -75 0 -60 3 -75 15 -75
12 0 15 15 15 75 0 73 1 75 25 75 16 0 25 6 25 15 0 12 -14 15 -65 15 -51 0
-65 -3 -65 -15z"/>
<path d="M2110 331 c0 -74 3 -91 15 -91 10 0 15 11 15 35 0 23 5 35 13 35 8 0
22 -16 33 -35 10 -20 26 -35 36 -35 22 0 22 4 1 36 -15 24 -15 27 1 55 15 25
15 33 4 56 -12 25 -20 28 -66 31 l-52 3 0 -90z m85 34 c0 -14 -8 -21 -27 -23
-24 -3 -28 0 -28 23 0 23 4 26 28 23 19 -2 27 -9 27 -23z"/>
</g>
</svg>
